<?xml version="1.0" encoding="UTF-8"?>
<svg id="Layer_2" data-name="Layer 2" xmlns="http://www.w3.org/2000/svg" viewBox="0 0 972.7 742.54">
  <defs>
    <style>
      .cls-1 {
        fill: #fff;
      }
    </style>
  </defs>
  <g id="Layer_1-2" data-name="Layer 1">
    <path class="cls-1" d="M484.23,559.45c60.5,64.66,129.58,149.18,203.09,172.3,181.87,57.25,343.33-123.89,263.59-297.36-10.2-22.39-26.1-43.25-42.8-61.31,116.22-116.58,70.16-324.91-94.46-365.36-105.74-25.92-167.69,16.53-238.67,86.06-29.53,28.9-57.88,59.24-86.51,89.31C427.97,118.42,358.89,33.99,285.38,10.78,103.51-46.47-57.95,134.76,21.7,308.23c10.29,22.3,26.19,43.25,42.89,61.22-116.22,116.58-70.16,324.91,94.46,365.36,105.74,26.01,167.69-16.44,238.67-85.97,29.44-28.9,57.88-59.33,86.51-89.4ZM112.18,441.43c48.22-58.88,120.01-113.96,170.13-173.11,19.83-26.15,6.26-55.98-18.53-64.34-14.86-5.01-31.31.33-42.53,11.27l-96.79,94.34C7.34,185.87,171.51,8.97,305.25,116.7c44.07,35.49,83.53,89.58,127.14,127.05l-224.94,225.48c-28.08,45.87,21.13,88.86,62.67,53.55,0,0,258.28-259.03,259.35-260.97,65.2-61.5,139.34-173.29,220.7-178.35,115.05-7.04,183.22,128.68,110.35,217.63-48.22,58.88-120.01,113.96-170.13,173.2-19.89,26.15-6.29,55.98,18.51,64.34,14.87,5.01,31.33-.34,42.56-11.29l96.77-94.4c117.12,123.71-47.05,300.71-180.78,192.98-44.07-35.49-83.62-89.67-127.24-127.15l225.03-225.48c28.08-45.87-21.13-88.86-62.67-53.46l-256.01,255.82c-1.26,1.63-2.44,3.34-3.34,5.06-65.2,61.59-139.34,173.29-220.79,178.35-114.95,7.04-183.22-128.68-110.26-217.63Z"/>
  </g>
</svg>