<?xml version="1.0" encoding="UTF-8"?>
<svg id="Layer_1" data-name="Layer 1" xmlns="http://www.w3.org/2000/svg" viewBox="0 0 1920 1080">
  <path d="M736.31,595.96c-7.68,0-14.92-1.37-21.71-4.11-6.79-2.74-12.76-6.6-17.92-11.6-5.16-5-9.18-10.91-12.07-17.76-2.9-6.84-4.34-14.36-4.34-22.57s1.44-15.71,4.34-22.49c2.89-6.79,6.92-12.68,12.07-17.68,5.16-5,11.13-8.86,17.92-11.6,6.79-2.74,14.02-4.1,21.71-4.1s15.18,1.34,21.86,4.02c6.68,2.69,12.44,6.61,17.29,11.76,4.84,5.16,8.42,11.47,10.74,18.94l-16.73,5.21c-2.74-7.47-6.89-13.36-12.47-17.68-5.58-4.31-12.31-6.47-20.21-6.47-7.26,0-13.76,1.63-19.49,4.89-5.74,3.26-10.26,7.89-13.58,13.89-3.31,6-4.97,13.1-4.97,21.31s1.6,15.34,4.81,21.39c3.21,6.05,7.66,10.73,13.34,14.05,5.69,3.31,12.16,4.97,19.42,4.97s14.02-2.13,20.29-6.39c6.26-4.26,10.86-9.92,13.81-16.97l17.05,3.95c-2.52,7.58-6.42,13.97-11.68,19.18-5.26,5.21-11.31,9.16-18.15,11.84-6.84,2.68-13.95,4.03-21.31,4.03Z"/>
  <path d="M842.08,595.96c-7.05,0-13.44-1.11-19.18-3.31-5.74-2.21-10.63-5.31-14.68-9.31-4.05-4-7.16-8.66-9.31-13.97-2.16-5.31-3.24-11.13-3.24-17.44,0-6.84,1.24-13.02,3.71-18.55,2.47-5.53,5.84-10.29,10.1-14.29,4.26-4,9.18-7.05,14.76-9.16,5.58-2.11,11.42-3.16,17.52-3.16,5.47,0,10.47.74,14.99,2.21,4.52,1.47,8.45,3.53,11.76,6.16,3.31,2.63,5.86,5.68,7.66,9.16,1.79,3.47,2.68,7.21,2.68,11.21,0,5.58-1.63,10.21-4.89,13.89-3.26,3.69-7.53,6.58-12.79,8.68-5.26,2.11-11.05,3.53-17.37,4.26-6.31.74-12.58.95-18.79.63-1.05-.1-2.37-.18-3.94-.24-1.58-.05-2.98-.1-4.19-.16-1.21-.05-1.87-.08-1.97-.08.73,3.47,2.39,6.61,4.97,9.39,2.58,2.79,5.81,4.97,9.71,6.55,3.89,1.58,8.05,2.37,12.47,2.37,3.58,0,7.13-.63,10.66-1.89,3.52-1.26,6.76-3,9.71-5.21,2.94-2.21,5.42-4.74,7.42-7.58l13.42,9.63c-3.47,4.63-7.39,8.44-11.76,11.44-4.37,3-9.03,5.21-13.97,6.63-4.95,1.42-10.1,2.13-15.47,2.13ZM826.61,548.6c3.89,0,7.84-.18,11.84-.55,4-.37,7.71-1.05,11.13-2.05,3.42-1,6.18-2.39,8.29-4.19,2.1-1.79,3.16-4.1,3.16-6.94,0-2.42-.76-4.6-2.29-6.55-1.53-1.94-3.66-3.5-6.39-4.66-2.74-1.16-5.95-1.74-9.63-1.74-5.47,0-10.37,1.21-14.68,3.63-4.31,2.42-7.71,5.63-10.18,9.63-2.47,4-3.81,8.31-4.02,12.94,1.47.11,3.31.21,5.52.32,2.21.11,4.63.16,7.26.16Z"/>
  <path d="M935.06,595.96c-7.05,0-13.44-1.11-19.18-3.31-5.74-2.21-10.63-5.31-14.68-9.31-4.05-4-7.16-8.66-9.31-13.97-2.16-5.31-3.24-11.13-3.24-17.44,0-6.84,1.24-13.02,3.71-18.55,2.47-5.53,5.84-10.29,10.1-14.29,4.26-4,9.18-7.05,14.76-9.16,5.58-2.11,11.42-3.16,17.52-3.16,5.47,0,10.47.74,14.99,2.21,4.52,1.47,8.45,3.53,11.76,6.16,3.31,2.63,5.86,5.68,7.66,9.16,1.79,3.47,2.68,7.21,2.68,11.21,0,5.58-1.63,10.21-4.89,13.89-3.26,3.69-7.53,6.58-12.79,8.68-5.26,2.11-11.05,3.53-17.37,4.26-6.31.74-12.58.95-18.79.63-1.05-.1-2.37-.18-3.94-.24-1.58-.05-2.98-.1-4.19-.16-1.21-.05-1.87-.08-1.97-.08.73,3.47,2.39,6.61,4.97,9.39,2.58,2.79,5.81,4.97,9.71,6.55,3.89,1.58,8.05,2.37,12.47,2.37,3.58,0,7.13-.63,10.66-1.89,3.52-1.26,6.76-3,9.71-5.21,2.94-2.21,5.42-4.74,7.42-7.58l13.42,9.63c-3.47,4.63-7.39,8.44-11.76,11.44-4.37,3-9.03,5.21-13.97,6.63-4.95,1.42-10.1,2.13-15.47,2.13ZM919.59,548.6c3.89,0,7.84-.18,11.84-.55,4-.37,7.71-1.05,11.13-2.05,3.42-1,6.18-2.39,8.29-4.19,2.1-1.79,3.16-4.1,3.16-6.94,0-2.42-.76-4.6-2.29-6.55-1.53-1.94-3.66-3.5-6.39-4.66-2.74-1.16-5.95-1.74-9.63-1.74-5.47,0-10.37,1.21-14.68,3.63-4.31,2.42-7.71,5.63-10.18,9.63-2.47,4-3.81,8.31-4.02,12.94,1.47.11,3.31.21,5.52.32,2.21.11,4.63.16,7.26.16Z"/>
  <path d="M1043.03,522.55l-39.47,57.62h39.47v14.68h-60.3v-14.68l39.62-57.62h-39.62v-14.68h60.3v14.68Z"/>
  <path d="M1091.97,595.96c-7.58,0-14.44-1.87-20.6-5.61-6.16-3.73-11.05-8.94-14.68-15.63-3.63-6.68-5.45-14.5-5.45-23.44s1.81-16.76,5.45-23.44c3.63-6.68,8.52-11.86,14.68-15.55,6.16-3.68,13.02-5.53,20.6-5.53,7.16,0,13.42,1.76,18.79,5.29,5.37,3.53,9.26,8.39,11.68,14.6v-18.79h18.15v86.98h-8.05c-2.95,0-5.37-.95-7.26-2.84-1.89-1.89-2.84-4.31-2.84-7.26v-8.84c-2.42,6.21-6.31,11.11-11.68,14.68-5.37,3.58-11.63,5.37-18.79,5.37ZM1096.07,580.33c4.52,0,8.79-1.1,12.79-3.31,4-2.21,7.26-5.5,9.79-9.86,2.52-4.37,3.79-9.66,3.79-15.87s-1.26-11.6-3.79-15.87c-2.53-4.26-5.79-7.5-9.79-9.71-4-2.21-8.26-3.31-12.79-3.31s-8.66,1.11-12.71,3.31c-4.05,2.21-7.34,5.45-9.86,9.71-2.53,4.26-3.79,9.55-3.79,15.87s1.26,11.5,3.79,15.87c2.52,4.37,5.81,7.66,9.86,9.86,4.05,2.21,8.29,3.31,12.71,3.31Z"/>
  <path d="M1191.1,595.96c-7.58,0-14.44-1.87-20.6-5.61-6.16-3.73-11.05-8.94-14.68-15.63-3.63-6.68-5.45-14.5-5.45-23.44s1.81-16.76,5.45-23.44c3.63-6.68,8.52-11.86,14.68-15.55,6.16-3.68,13.02-5.53,20.6-5.53,7.16,0,13.42,1.76,18.79,5.29,5.37,3.53,9.26,8.39,11.68,14.6v-18.79h18.15v86.98h-8.05c-2.95,0-5.37-.95-7.26-2.84-1.89-1.89-2.84-4.31-2.84-7.26v-8.84c-2.42,6.21-6.31,11.11-11.68,14.68-5.37,3.58-11.63,5.37-18.79,5.37ZM1195.21,580.33c4.52,0,8.79-1.1,12.79-3.31,4-2.21,7.26-5.5,9.79-9.86,2.52-4.37,3.79-9.66,3.79-15.87s-1.26-11.6-3.79-15.87c-2.53-4.26-5.79-7.5-9.79-9.71-4-2.21-8.26-3.31-12.79-3.31s-8.66,1.11-12.71,3.31c-4.05,2.21-7.34,5.45-9.86,9.71-2.53,4.26-3.79,9.55-3.79,15.87s1.26,11.5,3.79,15.87c2.52,4.37,5.81,7.66,9.86,9.86,4.05,2.21,8.29,3.31,12.71,3.31Z"/>
</svg>