<?xml version="1.0" encoding="UTF-8"?>
<svg id="Layer_1" data-name="Layer 1" xmlns="http://www.w3.org/2000/svg" viewBox="0 0 1920 1080">
  <defs>
    <style>
      .cls-1 {
        fill: #d3b481;
      }

      .cls-2 {
        fill: #0a1a2f;
      }
    </style>
  </defs>
  <rect class="cls-2" x="-48.78" y="-38.07" width="2017.56" height="1156.14" rx="11.58" ry="11.58"/>
  <path class="cls-1" d="M959.22,609.49c22.34,23.88,47.85,55.09,75,63.63,67.16,21.14,126.79-45.75,97.34-109.81-3.77-8.27-9.64-15.97-15.81-22.64,42.92-43.05,25.91-119.98-34.88-134.92-39.05-9.57-61.93,6.1-88.14,31.78-10.9,10.67-21.38,21.88-31.95,32.98-22.34-23.88-47.85-55.06-75-63.63-67.16-21.14-126.79,45.79-97.38,109.85,3.8,8.24,9.67,15.97,15.84,22.61-42.92,43.05-25.91,119.98,34.88,134.92,39.05,9.6,61.93-6.07,88.14-31.75,10.87-10.67,21.38-21.91,31.95-33.01ZM821.82,565.91c17.81-21.74,44.32-42.08,62.83-63.93,7.32-9.66,2.31-20.67-6.84-23.76-5.49-1.85-11.56.12-15.71,4.16l-35.74,34.84c-43.25-45.69,17.37-111.01,66.76-71.23,16.27,13.11,30.85,33.08,46.95,46.92l-83.07,83.27c-10.37,16.94,7.8,32.81,23.14,19.78,0,0,95.38-95.66,95.77-96.37,24.08-22.71,51.46-63.99,81.5-65.86,42.49-2.6,67.66,47.52,40.75,80.37-17.81,21.74-44.32,42.08-62.83,63.96-7.35,9.66-2.32,20.67,6.84,23.76,5.49,1.85,11.57-.12,15.72-4.17l35.74-34.86c43.25,45.69-17.37,111.05-66.76,71.26-16.27-13.11-30.88-33.11-46.99-46.95l83.1-83.27c10.37-16.94-7.8-32.81-23.14-19.74l-94.54,94.47c-.47.6-.9,1.23-1.23,1.87-24.08,22.74-51.46,63.99-81.54,65.86-42.45,2.6-67.66-47.52-40.72-80.37Z"/>
</svg>