<?xml version="1.0" encoding="UTF-8"?>
<svg id="Layer_2" data-name="Layer 2" xmlns="http://www.w3.org/2000/svg" viewBox="0 0 1129.87 226.04">
  <defs>
    <style>
      .cls-1 {
        fill: #fff;
      }
    </style>
  </defs>
  <g id="Layer_1-2" data-name="Layer 1">
    <g>
      <path class="cls-1" d="M113.18,226.04c-15.52,0-30.13-2.76-43.84-8.29-13.71-5.52-25.77-13.34-36.19-23.43-10.41-10.09-18.55-22.04-24.38-35.87C2.92,144.64,0,129.44,0,112.86s2.92-31.72,8.77-45.43c5.84-13.71,13.97-25.61,24.38-35.71,10.41-10.09,22.48-17.9,36.19-23.43C83.05,2.76,97.66,0,113.18,0s30.66,2.71,44.15,8.13c13.5,5.42,25.13,13.34,34.91,23.75,9.78,10.41,17.01,23.17,21.68,38.25l-33.79,10.53c-5.53-15.09-13.92-26.99-25.19-35.71-11.27-8.71-24.87-13.07-40.81-13.07-14.67,0-27.79,3.3-39.37,9.88-11.59,6.59-20.73,15.94-27.42,28.06-6.69,12.11-10.04,26.46-10.04,43.04s3.24,30.98,9.72,43.2c6.48,12.22,15.46,21.68,26.94,28.38,11.48,6.69,24.55,10.04,39.22,10.04s28.32-4.3,40.97-12.91c12.64-8.61,21.94-20.04,27.89-34.27l34.43,7.97c-5.1,15.3-12.96,28.22-23.59,38.74-10.63,10.52-22.85,18.49-36.66,23.91-13.82,5.42-28.17,8.13-43.04,8.13Z"/>
      <path class="cls-1" d="M326.78,226.04c-14.24,0-27.15-2.23-38.74-6.69-11.59-4.47-21.47-10.73-29.65-18.81-8.18-8.07-14.45-17.48-18.81-28.22-4.36-10.73-6.53-22.48-6.53-35.23,0-13.81,2.49-26.3,7.49-37.46,4.99-11.16,11.8-20.77,20.4-28.85,8.61-8.08,18.54-14.24,29.81-18.49,11.26-4.25,23.06-6.38,35.39-6.38,11.05,0,21.15,1.49,30.28,4.47,9.14,2.98,17.06,7.12,23.75,12.43,6.69,5.32,11.84,11.48,15.46,18.49,3.61,7.02,5.42,14.56,5.42,22.64,0,11.26-3.3,20.62-9.88,28.06-6.59,7.44-15.2,13.28-25.83,17.54-10.63,4.25-22.32,7.12-35.07,8.61-12.75,1.49-25.4,1.91-37.94,1.27-2.13-.21-4.78-.37-7.97-.48-3.19-.11-6.01-.21-8.45-.32-2.44-.1-3.77-.16-3.98-.16,1.48,7.02,4.83,13.34,10.04,18.97,5.21,5.63,11.74,10.04,19.61,13.23,7.86,3.19,16.26,4.78,25.19,4.78,7.22,0,14.4-1.27,21.52-3.83,7.12-2.55,13.65-6.06,19.61-10.52,5.95-4.46,10.94-9.56,14.98-15.3l27.1,19.45c-7.02,9.36-14.93,17.05-23.75,23.11-8.82,6.06-18.23,10.52-28.22,13.39-9.99,2.87-20.4,4.31-31.25,4.31ZM295.53,130.39c7.86,0,15.83-.37,23.92-1.12,8.07-.74,15.56-2.12,22.47-4.14,6.91-2.02,12.49-4.84,16.74-8.45,4.25-3.61,6.38-8.29,6.38-14.02,0-4.89-1.54-9.3-4.63-13.23-3.08-3.93-7.38-7.06-12.91-9.4-5.53-2.33-12.01-3.5-19.45-3.5-11.05,0-20.94,2.45-29.65,7.33-8.71,4.89-15.57,11.38-20.56,19.45-5,8.08-7.7,16.79-8.13,26.14,2.97.21,6.69.43,11.16.64,4.47.21,9.35.31,14.67.31Z"/>
      <path class="cls-1" d="M514.56,226.04c-14.24,0-27.15-2.23-38.74-6.69-11.59-4.47-21.47-10.73-29.65-18.81-8.18-8.07-14.45-17.48-18.81-28.22-4.36-10.73-6.53-22.48-6.53-35.23,0-13.81,2.49-26.3,7.49-37.46,4.99-11.16,11.8-20.77,20.4-28.85,8.61-8.08,18.54-14.24,29.81-18.49,11.26-4.25,23.06-6.38,35.39-6.38,11.05,0,21.15,1.49,30.28,4.47,9.14,2.98,17.06,7.12,23.75,12.43,6.69,5.32,11.84,11.48,15.46,18.49,3.61,7.02,5.42,14.56,5.42,22.64,0,11.26-3.3,20.62-9.88,28.06-6.59,7.44-15.2,13.28-25.83,17.54-10.63,4.25-22.32,7.12-35.07,8.61-12.75,1.49-25.4,1.91-37.94,1.27-2.13-.21-4.78-.37-7.97-.48-3.19-.11-6.01-.21-8.45-.32-2.44-.1-3.77-.16-3.98-.16,1.48,7.02,4.83,13.34,10.04,18.97,5.21,5.63,11.74,10.04,19.61,13.23,7.86,3.19,16.26,4.78,25.19,4.78,7.22,0,14.4-1.27,21.52-3.83,7.12-2.55,13.65-6.06,19.61-10.52,5.95-4.46,10.94-9.56,14.98-15.3l27.1,19.45c-7.02,9.36-14.93,17.05-23.75,23.11-8.82,6.06-18.23,10.52-28.22,13.39-9.99,2.87-20.4,4.31-31.25,4.31ZM483.32,130.39c7.86,0,15.83-.37,23.92-1.12,8.07-.74,15.56-2.12,22.47-4.14,6.91-2.02,12.49-4.84,16.74-8.45,4.25-3.61,6.38-8.29,6.38-14.02,0-4.89-1.54-9.3-4.63-13.23-3.08-3.93-7.38-7.06-12.91-9.4-5.53-2.33-12.01-3.5-19.45-3.5-11.05,0-20.94,2.45-29.65,7.33-8.71,4.89-15.57,11.38-20.56,19.45-5,8.08-7.7,16.79-8.13,26.14,2.97.21,6.69.43,11.16.64,4.47.21,9.35.31,14.67.31Z"/>
      <path class="cls-1" d="M732.62,77.79l-79.71,116.37h79.71v29.65h-121.79v-29.65l80.03-116.37h-80.03v-29.65h121.79v29.65Z"/>
      <path class="cls-1" d="M831.46,226.04c-15.3,0-29.17-3.77-41.6-11.32-12.43-7.54-22.32-18.06-29.65-31.56-7.34-13.5-11-29.28-11-47.34s3.67-33.85,11-47.35c7.33-13.49,17.21-23.96,29.65-31.4,12.43-7.44,26.3-11.16,41.6-11.16,14.45,0,27.1,3.56,37.94,10.68,10.84,7.13,18.7,16.95,23.59,29.49v-37.94h36.66v175.67h-16.26c-5.96,0-10.84-1.91-14.67-5.74-3.83-3.83-5.74-8.71-5.74-14.67v-17.86c-4.89,12.55-12.75,22.43-23.59,29.65-10.84,7.23-23.49,10.84-37.94,10.84ZM839.75,194.47c9.14,0,17.74-2.23,25.82-6.69,8.07-4.46,14.67-11.1,19.77-19.92,5.1-8.82,7.65-19.5,7.65-32.04s-2.55-23.43-7.65-32.04c-5.1-8.61-11.7-15.15-19.77-19.61-8.08-4.46-16.69-6.69-25.82-6.69s-17.49,2.23-25.67,6.69c-8.19,4.46-14.83,11-19.92,19.61-5.1,8.61-7.66,19.29-7.66,32.04s2.55,23.22,7.66,32.04c5.1,8.82,11.74,15.46,19.92,19.92,8.18,4.47,16.74,6.69,25.67,6.69Z"/>
      <path class="cls-1" d="M1031.68,226.04c-15.3,0-29.17-3.77-41.6-11.32-12.43-7.54-22.32-18.06-29.65-31.56-7.34-13.5-11-29.28-11-47.34s3.67-33.85,11-47.35c7.33-13.49,17.21-23.96,29.65-31.4,12.43-7.44,26.3-11.16,41.6-11.16,14.45,0,27.1,3.56,37.94,10.68,10.84,7.13,18.7,16.95,23.59,29.49v-37.94h36.66v175.67h-16.26c-5.96,0-10.84-1.91-14.67-5.74-3.83-3.83-5.74-8.71-5.74-14.67v-17.86c-4.89,12.55-12.75,22.43-23.59,29.65-10.84,7.23-23.49,10.84-37.94,10.84ZM1039.97,194.47c9.14,0,17.74-2.23,25.82-6.69,8.07-4.46,14.67-11.1,19.77-19.92,5.1-8.82,7.65-19.5,7.65-32.04s-2.55-23.43-7.65-32.04c-5.1-8.61-11.7-15.15-19.77-19.61-8.08-4.46-16.69-6.69-25.82-6.69s-17.49,2.23-25.67,6.69c-8.19,4.46-14.83,11-19.92,19.61-5.1,8.61-7.66,19.29-7.66,32.04s2.55,23.22,7.66,32.04c5.1,8.82,11.74,15.46,19.92,19.92,8.18,4.47,16.74,6.69,25.67,6.69Z"/>
    </g>
  </g>
</svg>